<svg width="25" height="25" viewBox="0 0 25 25" fill="none" xmlns="http://www.w3.org/2000/svg">
<path d="M12.1191 0.400391C5.48675 0.400391 0.119141 5.76739 0.119141 12.4004C0.119141 19.0327 5.48614 24.4004 12.1191 24.4004C18.7515 24.4004 24.1191 19.0334 24.1191 12.4004C24.1191 5.76809 18.7521 0.400391 12.1191 0.400391ZM13.3514 17.1639C13.3514 17.543 12.7986 17.922 12.1194 17.922C11.4086 17.922 10.9032 17.543 10.9032 17.1639V11.1457C10.9032 10.7035 11.4086 10.4033 12.1194 10.4033C12.7986 10.4033 13.3514 10.7035 13.3514 11.1457V17.1639ZM12.1194 8.9502C11.3928 8.9502 10.8242 8.41316 10.8242 7.81287C10.8242 7.21264 11.3929 6.69139 12.1194 6.69139C12.8302 6.69139 13.3989 7.21264 13.3989 7.81287C13.3989 8.41316 12.8302 8.9502 12.1194 8.9502Z" fill="#303943"/>
</svg>
