<svg width="25" height="25" viewBox="0 0 25 25" fill="none" xmlns="http://www.w3.org/2000/svg">
<path d="M15.0959 1.75488H7.67435C6.87889 1.75488 6.11182 2.03936 5.47743 2.65024L2.31122 5.77025C1.74432 6.33703 1.37891 7.11944 1.37891 8.00408V18.0287C1.37891 19.7733 2.80048 21.1949 4.54511 21.1949H13.1666C13.1574 21.1856 13.1574 21.1764 13.1481 21.1672C11.7635 18.6748 11.9297 15.7856 12.022 14.9087C12.0867 14.1333 12.539 13.4503 13.2313 13.081L16.9698 11.0595C17.3112 10.8748 17.6897 10.7825 18.0682 10.7825C18.1329 10.7825 18.2066 10.7825 18.2713 10.7918V4.92103C18.2713 3.1764 16.8497 1.75488 15.0959 1.75488ZM8.69896 15.4995H5.96668C5.45895 15.4995 5.04361 15.0841 5.04361 14.5764C5.04361 14.0595 5.45895 13.6533 5.96668 13.6533H8.69896C9.21582 13.6533 9.62203 14.0595 9.62203 14.5764C9.62203 15.0841 9.21582 15.4995 8.69896 15.4995ZM11.4406 11.2626H5.96668C5.45895 11.2626 5.04361 10.8472 5.04361 10.3395C5.04361 9.82257 5.45895 9.41641 5.96668 9.41641H11.4406C11.9482 9.41641 12.3637 9.82257 12.3637 10.3395C12.3637 10.8472 11.9482 11.2626 11.4406 11.2626Z" fill="#303943"/>
<path d="M14.5423 14.7522C14.404 14.826 14.3116 14.9553 14.3023 15.1122C14.2194 15.8783 14.0901 18.2968 15.2069 20.3091C15.2993 20.4752 15.4009 20.6414 15.5116 20.7983C16.1855 21.7768 17.1917 22.5983 18.6962 23.0229C23.487 21.666 22.924 16.2845 22.7394 15.0937C22.7209 14.946 22.6285 14.826 22.4994 14.7522L18.7424 12.7214C18.604 12.6476 18.4286 12.6476 18.2901 12.7214L18.2716 12.7306C18.1783 12.7812 14.299 14.8841 14.5423 14.7522Z" fill="#303943"/>
</svg>
